<svg width="20" height="18" viewBox="0 0 20 18" fill="none" xmlns="http://www.w3.org/2000/svg">
<path d="M4.75 5C4.33579 5 4 5.33579 4 5.75V9.25C4 9.66421 4.33579 10 4.75 10H15.25C15.6642 10 16 9.66421 16 9.25V5.75C16 5.33579 15.6642 5 15.25 5H4.75ZM5.5 8.5V6.5H14.5V8.5H5.5ZM11.75 11C11.3358 11 11 11.3358 11 11.75V14.25C11 14.6642 11.3358 15 11.75 15H15.25C15.6642 15 16 14.6642 16 14.25V11.75C16 11.3358 15.6642 11 15.25 11H11.75ZM12.5 13.5V12.5H14.5V13.5H12.5ZM2 0C0.89543 0 0 0.895431 0 2C0 2.74028 0.402199 3.38663 1 3.73244V17.25C1 17.6642 1.33579 18 1.75 18H18.25C18.6642 18 19 17.6642 19 17.25V3.73244C19.5978 3.38663 20 2.74028 20 2C20 0.89543 19.1046 0 18 0H2ZM17.5 4V16.5H9.5V11.75C9.5 11.3358 9.16421 11 8.75 11H4.75C4.33579 11 4 11.3358 4 11.75V16.5H2.5V4H17.5ZM1.5 2C1.5 1.72386 1.72386 1.5 2 1.5H18C18.2761 1.5 18.5 1.72386 18.5 2C18.5 2.27614 18.2761 2.5 18 2.5H2C1.72386 2.5 1.5 2.27614 1.5 2ZM8 16.5H5.5V12.5H8V16.5Z" fill="#212121"/>
</svg>
