<svg width="18" height="21" viewBox="0 0 18 21" fill="none" xmlns="http://www.w3.org/2000/svg">
<path d="M8.99987 0.996094C13.0498 0.996094 16.3565 4.19084 16.4957 8.24515L16.4999 8.49609V12.5931L17.8799 15.7491C17.9489 15.907 17.9846 16.0775 17.9846 16.2499C17.9846 16.9402 17.4249 17.4999 16.7346 17.4999L11.9999 17.5014C11.9999 19.1582 10.6567 20.5014 8.99987 20.5014C7.40219 20.5014 6.09621 19.2524 6.00496 17.6776L5.99941 17.4991L1.27473 17.4999C1.10339 17.4999 0.933883 17.4646 0.77673 17.3964C0.143528 17.1213 -0.146821 16.3851 0.128218 15.7519L1.49987 12.594V8.49599C1.50046 4.3412 4.85195 0.996094 8.99987 0.996094ZM10.4994 17.4991L7.49987 17.5014C7.49987 18.3298 8.17144 19.0014 8.99987 19.0014C9.77956 19.0014 10.4203 18.4065 10.493 17.6458L10.4994 17.4991ZM8.99987 2.49609C5.67971 2.49609 3.00034 5.17035 2.99987 8.49609V12.9057L1.65589 15.9999H16.3524L14.9999 12.9067L15 8.50895L14.9962 8.28375C14.8852 5.05027 12.2414 2.49609 8.99987 2.49609Z" fill="black"/>
</svg>
