<svg width="21" height="21" viewBox="0 0 21 21" fill="none" xmlns="http://www.w3.org/2000/svg">
<path d="M8.99805 11.9956V13.4956H2.24934C1.83567 13.4956 1.50031 13.8309 1.50031 14.2445V14.8222C1.50031 15.3579 1.69146 15.876 2.03939 16.2834C3.29296 17.7511 5.25925 18.4969 7.99812 18.4969C9.10402 18.4969 10.0842 18.3753 10.9427 18.1337L12.1138 19.3257C10.9335 19.7742 9.55916 19.997 7.99812 19.997C4.85161 19.997 2.4651 19.0918 0.898467 17.2575C0.318585 16.5785 0 15.715 0 14.8222V14.2445C0 13.0025 1.00707 11.9956 2.24934 11.9956H8.99805ZM12.9992 5.00013C12.9992 2.23863 10.7601 0 7.99812 0C5.23612 0 2.99708 2.23863 2.99708 5.00013C2.99708 7.76162 5.23612 10.0003 7.99812 10.0003C10.7601 10.0003 12.9992 7.76162 12.9992 5.00013ZM4.49739 5.00013C4.49739 3.06708 6.06472 1.50004 7.99812 1.50004C9.93152 1.50004 11.4988 3.06708 11.4988 5.00013C11.4988 6.93317 9.93152 8.50022 7.99812 8.50022C6.06472 8.50022 4.49739 6.93317 4.49739 5.00013ZM14.5713 20.3999L10.5704 16.3277C10.2036 15.9544 9.99826 15.4528 9.99826 14.9305V11.994C9.99826 10.892 10.8942 9.99862 12.0001 9.99784L14.9178 9.99578C15.4457 9.99541 15.9525 10.2026 16.328 10.5725L20.4045 14.5867C21.1937 15.3639 21.1992 16.632 20.4166 17.4154L17.4234 20.4121C16.6356 21.2007 15.3527 21.1953 14.5713 20.3999ZM12.9952 13.9957C13.5469 13.9957 13.9941 13.548 13.9941 12.9957C13.9941 12.4434 13.5469 11.9957 12.9952 11.9957C12.4435 11.9957 11.9963 12.4434 11.9963 12.9957C11.9963 13.548 12.4435 13.9957 12.9952 13.9957Z" fill="black"/>
</svg>
