<svg width="18" height="18" viewBox="0 0 18 18" fill="none" xmlns="http://www.w3.org/2000/svg">
<path d="M3.25 0C1.45507 0 0 1.45507 0 3.25V14.75C0 16.5449 1.45507 18 3.25 18H14.75C16.5449 18 18 16.5449 18 14.75V3.25C18 1.45507 16.5449 0 14.75 0H3.25ZM1.5 3.25C1.5 2.2835 2.2835 1.5 3.25 1.5H14.75C15.7165 1.5 16.5 2.2835 16.5 3.25V5.5H1.5V3.25ZM7 7H11V11H7V7ZM5.5 7V11H1.5V7H5.5ZM5.5 12.5V16.5H3.25C2.2835 16.5 1.5 15.7165 1.5 14.75V12.5H5.5ZM7 16.5V12.5H11V16.5H7ZM12.5 11V7H16.5V11H12.5ZM12.5 12.5H16.5V14.75C16.5 15.7165 15.7165 16.5 14.75 16.5H12.5V12.5Z" fill="black"/>
</svg>
