<svg width="28" height="26" viewBox="0 0 28 26" fill="none" xmlns="http://www.w3.org/2000/svg">
<g filter="url(#filter0_d_89_573)">
<path d="M13.9999 9.00462C16.209 9.00462 17.9999 10.7955 17.9999 13.0046C17.9999 15.2138 16.209 17.0046 13.9999 17.0046C11.7907 17.0046 9.99987 15.2138 9.99987 13.0046C9.99987 10.7955 11.7907 9.00462 13.9999 9.00462ZM13.9999 5.5C18.6134 5.5 22.596 8.65001 23.701 13.0644C23.8016 13.4662 23.5574 13.8735 23.1556 13.9741C22.7537 14.0746 22.3465 13.8305 22.2459 13.4286C21.307 9.67796 17.9212 7 13.9999 7C10.0768 7 6.68997 9.68026 5.75273 13.4332C5.65237 13.835 5.24523 14.0794 4.84336 13.9791C4.44149 13.8787 4.19707 13.4716 4.29743 13.0697C5.40052 8.65272 9.38436 5.5 13.9999 5.5Z" fill="white"/>
</g>
<defs>
<filter id="filter0_d_89_573" x="-2" y="0" width="32" height="32" filterUnits="userSpaceOnUse" color-interpolation-filters="sRGB">
<feFlood flood-opacity="0" result="BackgroundImageFix"/>
<feColorMatrix in="SourceAlpha" type="matrix" values="0 0 0 0 0 0 0 0 0 0 0 0 0 0 0 0 0 0 127 0" result="hardAlpha"/>
<feOffset dy="4"/>
<feGaussianBlur stdDeviation="2"/>
<feComposite in2="hardAlpha" operator="out"/>
<feColorMatrix type="matrix" values="0 0 0 0 0 0 0 0 0 0 0 0 0 0 0 0 0 0 0.25 0"/>
<feBlend mode="normal" in2="BackgroundImageFix" result="effect1_dropShadow_89_573"/>
<feBlend mode="normal" in="SourceGraphic" in2="effect1_dropShadow_89_573" result="shape"/>
</filter>
</defs>
</svg>
