<svg width="439" height="332" viewBox="0 0 439 332" fill="none" xmlns="http://www.w3.org/2000/svg">
<g clip-path="url(#clip0_2_193)">
<path d="M426.021 97.2896H185.794C182.413 97.2928 179.171 98.7131 176.78 101.239C174.389 103.764 173.044 107.189 173.041 110.761V151.884C173.044 155.456 174.389 158.88 176.78 161.406C179.171 163.932 182.413 165.352 185.794 165.355H426.021C429.402 165.352 432.644 163.932 435.035 161.406C437.427 158.88 438.771 155.456 438.774 151.884V110.761C438.771 107.189 437.427 103.764 435.035 101.239C432.644 98.7131 429.402 97.2928 426.021 97.2896Z" fill="#F2F2F2"/>
<path d="M96.3372 332H0.764581C0.561801 332 0.367315 331.915 0.223928 331.763C0.0805416 331.612 0 331.407 0 331.192C0 330.978 0.0805416 330.773 0.223928 330.621C0.367315 330.47 0.561801 330.385 0.764581 330.385H96.3372C96.54 330.385 96.7344 330.47 96.8778 330.621C97.0212 330.773 97.1018 330.978 97.1018 331.192C97.1018 331.407 97.0212 331.612 96.8778 331.763C96.7344 331.915 96.54 332 96.3372 332Z" fill="#3F3D56"/>
<path d="M82.3044 79.1291C81.4181 79.7201 80.6652 80.5091 80.0988 81.4407C79.5324 82.3722 79.1662 83.4236 79.0261 84.5208C78.886 85.618 78.9754 86.7343 79.2879 87.791C79.6004 88.8478 80.1284 89.8194 80.8348 90.6373L73.8867 106.31L81.8734 113.092L91.3912 90.8146C92.6133 89.47 93.326 87.6985 93.3943 85.8359C93.4626 83.9733 92.8816 82.1489 91.7616 80.7085C90.6415 79.2682 89.0601 78.3118 87.3171 78.0207C85.5741 77.7296 83.7905 78.124 82.3044 79.1291V79.1291Z" fill="#FFB8B8"/>
<path d="M42.3772 85.489C44.5761 84.0938 47.1991 83.6461 49.7021 84.2388C52.2051 84.8315 54.3961 86.4191 55.8208 88.6723L70.038 111.158L74.9737 99.6647C75.2819 98.947 75.8279 98.3731 76.5088 98.051C77.1897 97.7288 77.9586 97.6807 78.6708 97.9157L86.1203 100.374C86.5095 100.502 86.8705 100.711 87.182 100.989C87.4935 101.267 87.7492 101.608 87.9341 101.992C88.1191 102.376 88.2294 102.795 88.2588 103.225C88.2882 103.654 88.236 104.086 88.1052 104.493L83.0057 120.399C82.3606 122.411 81.2829 124.238 79.857 125.736C78.4311 127.234 76.696 128.362 74.7877 129.033C72.8795 129.703 70.8501 129.897 68.8588 129.6C66.8676 129.302 64.9687 128.521 63.3113 127.318C62.5368 126.756 61.8222 126.107 61.1801 125.382L40.2287 101.736C39.2112 100.587 38.4499 99.2133 38.0002 97.7139C37.5506 96.2146 37.4242 94.6281 37.6302 93.0704C37.8362 91.5128 38.3694 90.0236 39.1907 88.7118C40.0121 87.4 41.1008 86.2988 42.3772 85.489Z" fill="#CCCCCC"/>
<path d="M88.3684 62.2556C88.75 62.2656 89.1122 62.4353 89.3753 62.7274C89.6385 63.0195 89.781 63.4101 89.7715 63.8132L89.6488 69.0325L89.8966 69.0564L89.8076 72.6013L89.5656 72.5694L89.1259 91.2678C89.1109 91.9078 88.8759 92.5201 88.4648 92.9905C88.0538 93.4609 87.4947 93.7573 86.892 93.8243L75.636 95.076C75.3619 95.1065 75.0849 95.0733 74.8243 94.9787C74.5637 94.8842 74.3258 94.7305 74.1273 94.5286C73.9289 94.3266 73.7746 94.0812 73.6755 93.8097C73.5763 93.5381 73.5345 93.2469 73.5531 92.9565L75.2603 66.3314C75.2962 65.7721 75.5111 65.2424 75.8697 64.8293C76.2284 64.4162 76.7094 64.1443 77.2337 64.0583L88.0999 62.2751C88.1886 62.2598 88.2785 62.2532 88.3684 62.2556Z" fill="#3F3D56"/>
<path d="M79.6575 65.0266L85.37 64.0892C85.4728 64.0724 85.5675 64.0202 85.6394 63.9407C85.7113 63.8613 85.7564 63.759 85.7677 63.6497C85.7805 63.5259 85.8316 63.4101 85.913 63.3201C85.9944 63.2301 86.1017 63.171 86.2181 63.1519L87.4214 62.9544C87.5856 62.9275 87.7534 62.9389 87.913 62.9879C88.0725 63.037 88.2199 63.1224 88.3448 63.2382C88.4697 63.354 88.569 63.4973 88.6357 63.658C88.7024 63.8188 88.7349 63.993 88.7309 64.1685L88.1124 91.2779C88.1048 91.6143 87.9801 91.936 87.7622 92.1815C87.5443 92.427 87.2485 92.5792 86.9312 92.609L75.6834 93.6653C75.5399 93.6787 75.3954 93.6593 75.2597 93.6084C75.1239 93.5575 75.0002 93.4762 74.8969 93.3701C74.7936 93.264 74.7133 93.1357 74.6613 92.9938C74.6092 92.8519 74.5869 92.6998 74.5956 92.5479L76.1132 66.1688C76.1356 65.7801 76.2831 65.4112 76.5313 65.1233C76.7795 64.8355 77.1135 64.6459 77.4778 64.5861L78.7462 64.378C78.7928 64.5875 78.9126 64.7706 79.0815 64.8909C79.2505 65.0112 79.4562 65.0597 79.6575 65.0266Z" fill="white"/>
<path d="M53.1554 322.197L61.8961 322.196L66.0531 286.583L53.1523 286.585L53.1554 322.197Z" fill="#FFB8B8"/>
<path d="M78.7539 330.768L51.2827 330.771L51.2818 319.559L68.1391 319.558C69.5329 319.558 70.9131 319.847 72.2009 320.411C73.4887 320.974 74.6588 321.8 75.6445 322.841C76.6302 323.882 77.4121 325.118 77.9456 326.478C78.4791 327.838 78.7538 329.296 78.7539 330.768L78.7539 330.768Z" fill="#2F2E41"/>
<path d="M26.2911 322.197L35.0318 322.196L39.1889 286.583L26.2881 286.585L26.2911 322.197Z" fill="#FFB8B8"/>
<path d="M51.8896 330.768L24.4185 330.771L24.4175 319.559L41.2748 319.558C44.0898 319.557 46.7896 320.738 48.7802 322.841C50.7709 324.943 51.8894 327.795 51.8896 330.768L51.8896 330.768Z" fill="#2F2E41"/>
<path d="M51.8902 73.3858C62.2615 73.3858 70.6691 64.5049 70.6691 53.5498C70.6691 42.5947 62.2615 33.7139 51.8902 33.7139C41.5189 33.7139 33.1113 42.5947 33.1113 53.5498C33.1113 64.5049 41.5189 73.3858 51.8902 73.3858Z" fill="#FFB8B8"/>
<path d="M61.5547 106.621C61.4013 101.521 60.042 96.5427 57.6009 92.1398C55.1597 87.7369 51.7142 84.0493 47.5784 81.4131C42.7269 78.3934 37.4165 77.2157 33.1917 81.6783C30.6549 84.4252 28.6233 87.646 27.2005 91.1769C23.2924 100.799 23.0367 111.639 26.4864 121.455L36.5418 150.799L59.815 153.462C60.2521 153.512 60.6944 153.462 61.1115 153.315C61.5286 153.168 61.9109 152.928 62.2322 152.611C62.5535 152.294 62.8063 151.907 62.9734 151.478C63.1404 151.048 63.2178 150.585 63.2003 150.121L61.5547 106.621Z" fill="#2F2E41"/>
<path d="M38.0176 147.185C38.0176 147.185 20.63 154.041 25.1759 183.074C29.2552 209.127 26.0135 295.6 25.3049 313.08C25.2712 313.913 25.544 314.727 26.0663 315.353C26.5886 315.978 27.3198 316.366 28.1066 316.434L38.2564 317.328C39.0513 317.398 39.8407 317.137 40.4562 316.601C41.0716 316.065 41.4644 315.296 41.5507 314.458L46.7926 263.599C46.8132 263.4 46.9034 263.215 47.0457 263.082C47.1879 262.949 47.372 262.877 47.562 262.879C47.7521 262.881 47.9344 262.959 48.0736 263.095C48.2127 263.232 48.2986 263.419 48.3146 263.619L52.2206 312.557C52.2864 313.381 52.6492 314.148 53.2343 314.698C53.8193 315.248 54.5819 315.54 55.3649 315.514L63.8901 315.229C64.2918 315.216 64.6871 315.119 65.0534 314.944C65.4196 314.769 65.7496 314.52 66.0245 314.21C66.2994 313.9 66.5138 313.536 66.6555 313.139C66.7971 312.741 66.8632 312.319 66.85 311.894L61.8281 150.576L38.0176 147.185Z" fill="#2F2E41"/>
<path d="M55.6585 52.2428C61.9391 54.9636 69.9596 51.7853 72.9961 45.3724C76.0326 38.9595 73.6295 30.2742 67.8014 26.598C61.9733 22.9217 53.5947 24.8061 49.6899 30.6713C46.5135 24.6266 38.1922 23.0855 32.4789 26.4583C26.7657 29.8312 23.6537 36.896 23.2846 43.7984C22.9155 50.7009 24.9022 57.5008 27.3256 63.9228C31.2458 74.3109 43.8658 79.9042 53.6297 75.5811C49.1598 68.5489 50.0422 58.2581 55.6585 52.2428Z" fill="#2F2E41"/>
<path d="M80.967 81.5344C80.7998 81.5347 80.6371 81.4776 80.5034 81.3717L80.4951 81.3651L78.7491 79.9543C78.6683 79.8888 78.6004 79.8071 78.5494 79.7139C78.4984 79.6208 78.4653 79.5179 78.452 79.4112C78.4387 79.3045 78.4453 79.196 78.4717 79.0921C78.498 78.9881 78.5435 78.8906 78.6055 78.8052C78.6675 78.7198 78.7448 78.6481 78.833 78.5942C78.9212 78.5404 79.0186 78.5054 79.1196 78.4913C79.2206 78.4772 79.3233 78.4843 79.4217 78.5121C79.5202 78.5399 79.6124 78.5879 79.6933 78.6534L80.8242 79.5695L83.4966 75.8867C83.5586 75.8013 83.6359 75.7297 83.7241 75.6758C83.8122 75.622 83.9096 75.5871 84.0106 75.573C84.1116 75.5589 84.2142 75.5659 84.3126 75.5937C84.411 75.6215 84.5032 75.6696 84.584 75.735L84.5843 75.7352L84.5677 75.7595L84.5847 75.7352C84.7478 75.8676 84.8545 76.0629 84.8814 76.2783C84.9083 76.4936 84.8532 76.7115 84.7282 76.884L81.5848 81.2138C81.5121 81.3135 81.4186 81.3943 81.3116 81.4497C81.2045 81.5051 81.0869 81.5337 80.9677 81.5334L80.967 81.5344Z" fill="#6C63FF"/>
<path d="M426.246 0H186.02C182.639 0.00323546 179.396 1.42358 177.005 3.94925C174.614 6.47491 173.27 9.89951 173.267 13.4713V54.5944C173.27 58.1662 174.614 61.5908 177.005 64.1165C179.396 66.6421 182.639 68.0625 186.02 68.0657H426.246C429.628 68.0625 432.87 66.6421 435.261 64.1165C437.652 61.5908 438.997 58.1662 439 54.5944V13.4713C438.997 9.89951 437.652 6.4749 435.261 3.94924C432.87 1.42357 429.628 0.00323545 426.246 0ZM437.657 54.5944C437.653 57.7897 436.45 60.8529 434.31 63.1123C432.171 65.3718 429.272 66.6431 426.246 66.6477H186.02C182.995 66.6431 180.095 65.3718 177.956 63.1123C175.817 60.8529 174.613 57.7897 174.609 54.5944V13.4713C174.613 10.276 175.817 7.21282 177.956 4.95336C180.095 2.69391 182.995 1.42255 186.02 1.41803H426.246C429.272 1.42255 432.171 2.69391 434.31 4.95336C436.45 7.21282 437.653 10.276 437.657 13.4713V54.5944Z" fill="#3F3D56"/>
<path d="M234.907 57.4797C230.516 57.4797 226.225 56.1046 222.574 53.5283C218.924 50.9519 216.079 47.29 214.399 43.0056C212.719 38.7212 212.279 34.0068 213.135 29.4585C213.992 24.9103 216.106 20.7324 219.21 17.4532C222.315 14.1741 226.27 11.941 230.576 11.0362C234.882 10.1315 239.345 10.5958 243.401 12.3705C247.457 14.1451 250.924 17.1504 253.363 21.0062C255.802 24.8621 257.104 29.3953 257.104 34.0327C257.097 40.249 254.756 46.2087 250.595 50.6044C246.434 55 240.792 57.4726 234.907 57.4797Z" fill="#6C63FF"/>
<path d="M393.469 53.1763H278.093C276.668 53.1763 275.302 52.5787 274.295 51.515C273.288 50.4513 272.723 49.0085 272.723 47.5042C272.723 45.9998 273.288 44.5571 274.295 43.4934C275.302 42.4297 276.668 41.832 278.093 41.832H393.469C394.894 41.832 396.26 42.4297 397.267 43.4934C398.274 44.5571 398.839 45.9998 398.839 47.5042C398.839 49.0085 398.274 50.4513 397.267 51.515C396.26 52.5787 394.894 53.1763 393.469 53.1763Z" fill="#CCCCCC"/>
<path d="M316.278 29.0696H278.093C276.668 29.0696 275.302 28.472 274.295 27.4083C273.288 26.3446 272.723 24.9018 272.723 23.3975C272.723 21.8931 273.288 20.4504 274.295 19.3867C275.302 18.323 276.668 17.7253 278.093 17.7253H316.278C317.702 17.7253 319.068 18.323 320.075 19.3867C321.082 20.4504 321.648 21.8931 321.648 23.3975C321.648 24.9018 321.082 26.3446 320.075 27.4083C319.068 28.472 317.702 29.0696 316.278 29.0696Z" fill="#CCCCCC"/>
<path d="M233.772 42.2803C233.222 42.2813 232.686 42.0931 232.245 41.7441L232.218 41.7225L226.464 37.0736C226.197 36.8581 225.973 36.5891 225.805 36.2819C225.636 35.9747 225.527 35.6355 225.482 35.2836C225.438 34.9316 225.46 34.5739 225.547 34.2309C225.633 33.888 225.783 33.5664 225.988 33.2846C226.192 33.0029 226.447 32.7665 226.738 32.589C227.029 32.4115 227.351 32.2963 227.684 32.2501C228.017 32.2039 228.356 32.2275 228.68 32.3197C229.005 32.4118 229.309 32.5707 229.575 32.7871L233.302 35.8056L242.108 23.6706C242.312 23.3893 242.567 23.1532 242.857 22.9758C243.148 22.7984 243.469 22.6832 243.802 22.6368C244.134 22.5903 244.472 22.6136 244.797 22.7052C245.121 22.7968 245.425 22.955 245.691 23.1707L245.692 23.1713L245.637 23.2514L245.693 23.1713C246.231 23.6075 246.582 24.2511 246.671 24.9608C246.76 25.6705 246.578 26.3884 246.166 26.9569L235.808 41.224C235.569 41.5527 235.261 41.8187 234.908 42.0013C234.555 42.184 234.168 42.2784 233.775 42.2772L233.772 42.2803Z" fill="white"/>
<path d="M323.028 110.644H82.8013C79.4198 110.647 76.1777 112.068 73.7866 114.593C71.3955 117.119 70.0509 120.544 70.0479 124.115V165.238C70.0509 168.81 71.3955 172.235 73.7866 174.761C76.1777 177.286 79.4198 178.706 82.8013 178.71H323.028C326.409 178.706 329.651 177.286 332.042 174.761C334.433 172.235 335.778 168.81 335.781 165.238V124.115C335.778 120.544 334.433 117.119 332.042 114.593C329.651 112.068 326.409 110.647 323.028 110.644Z" fill="white"/>
<path d="M323.028 110.644H82.8013C79.4198 110.647 76.1777 112.068 73.7866 114.593C71.3955 117.119 70.0509 120.544 70.0479 124.115V165.238C70.0509 168.81 71.3955 172.235 73.7866 174.761C76.1777 177.286 79.4198 178.706 82.8013 178.71H323.028C326.409 178.706 329.651 177.286 332.042 174.761C334.433 172.235 335.778 168.81 335.781 165.238V124.115C335.778 120.544 334.433 117.119 332.042 114.593C329.651 112.068 326.409 110.647 323.028 110.644ZM334.439 165.238C334.434 168.434 333.231 171.497 331.092 173.756C328.953 176.016 326.053 177.287 323.028 177.292H82.8013C79.7762 177.287 76.8763 176.016 74.7372 173.756C72.5982 171.497 71.3946 168.434 71.3903 165.238V124.115C71.3946 120.92 72.5982 117.857 74.7372 115.597C76.8763 113.338 79.7762 112.067 82.8013 112.062H323.028C326.053 112.067 328.953 113.338 331.092 115.597C333.231 117.857 334.434 120.92 334.439 124.115V165.238Z" fill="#3F3D56"/>
<path d="M131.688 168.124C127.298 168.124 123.006 166.748 119.356 164.172C115.705 161.596 112.86 157.934 111.18 153.649C109.5 149.365 109.06 144.651 109.917 140.102C110.773 135.554 112.887 131.376 115.992 128.097C119.096 124.818 123.051 122.585 127.357 121.68C131.663 120.775 136.126 121.24 140.182 123.014C144.238 124.789 147.705 127.794 150.144 131.65C152.583 135.506 153.885 140.039 153.885 144.677C153.879 150.893 151.538 156.853 147.376 161.248C143.215 165.644 137.573 168.116 131.688 168.124Z" fill="#6C63FF"/>
<path d="M290.252 163.82H174.875C173.451 163.82 172.085 163.223 171.078 162.159C170.071 161.095 169.505 159.653 169.505 158.148C169.505 156.644 170.071 155.201 171.078 154.137C172.085 153.074 173.451 152.476 174.875 152.476H290.252C291.676 152.476 293.042 153.074 294.049 154.137C295.056 155.201 295.622 156.644 295.622 158.148C295.622 159.653 295.056 161.095 294.049 162.159C293.042 163.223 291.676 163.82 290.252 163.82Z" fill="#CCCCCC"/>
<path d="M213.06 139.713H174.875C174.17 139.713 173.471 139.567 172.82 139.282C172.168 138.997 171.576 138.579 171.078 138.052C170.579 137.525 170.183 136.9 169.914 136.212C169.644 135.524 169.505 134.786 169.505 134.041C169.505 133.296 169.644 132.559 169.914 131.871C170.183 131.182 170.579 130.557 171.078 130.03C171.576 129.504 172.168 129.086 172.82 128.801C173.471 128.516 174.17 128.369 174.875 128.369H213.06C214.484 128.369 215.85 128.967 216.857 130.03C217.864 131.094 218.43 132.537 218.43 134.041C218.43 135.546 217.864 136.988 216.857 138.052C215.85 139.116 214.484 139.713 213.06 139.713Z" fill="#CCCCCC"/>
<path d="M130.555 152.924C130.004 152.925 129.468 152.737 129.027 152.388L129 152.366L123.247 147.717C122.98 147.502 122.755 147.233 122.587 146.926C122.418 146.619 122.309 146.279 122.264 145.927C122.22 145.575 122.242 145.218 122.329 144.875C122.415 144.532 122.565 144.21 122.77 143.928C122.974 143.647 123.229 143.41 123.52 143.233C123.812 143.055 124.133 142.94 124.466 142.894C124.799 142.848 125.138 142.871 125.463 142.963C125.787 143.056 126.091 143.214 126.358 143.431L130.084 146.449L138.89 134.314C139.094 134.033 139.349 133.797 139.64 133.62C139.93 133.442 140.251 133.327 140.584 133.281C140.916 133.234 141.255 133.257 141.579 133.349C141.903 133.441 142.207 133.599 142.473 133.814L142.474 133.815L142.419 133.895L142.476 133.815C143.013 134.251 143.364 134.895 143.453 135.605C143.542 136.314 143.36 137.032 142.948 137.601L132.591 151.868C132.351 152.196 132.043 152.462 131.69 152.645C131.337 152.828 130.95 152.922 130.557 152.921L130.555 152.924Z" fill="white"/>
<path d="M75.0115 119.92C74.0461 119.489 73.003 119.287 71.9556 119.327C70.9082 119.368 69.8819 119.651 68.9491 120.156C68.0163 120.661 67.1997 121.375 66.5567 122.25C65.9138 123.124 65.4601 124.137 65.2277 125.216L49.0795 128.138L48.3672 138.937L71.1167 134.472C72.8595 134.764 74.6433 134.371 76.13 133.367C77.6166 132.363 78.7029 130.817 79.183 129.024C79.6631 127.23 79.5036 125.313 78.7348 123.635C77.9659 121.957 76.6412 120.635 75.0115 119.92L75.0115 119.92Z" fill="#FFB8B8"/>
<path d="M47.2735 88.9253C49.6134 90.0358 51.4588 92.0549 52.4272 94.5639C53.3955 97.073 53.4124 99.8794 52.4745 102.401L43.1139 127.568L54.8653 125.287C55.5991 125.144 56.3569 125.29 56.996 125.697C57.6351 126.103 58.1115 126.743 58.3354 127.495L60.678 135.358C60.8004 135.769 60.8438 136.202 60.8056 136.63C60.7674 137.059 60.6484 137.476 60.4557 137.855C60.2629 138.235 60.0002 138.57 59.6831 138.84C59.366 139.111 59.0008 139.312 58.6091 139.432L43.3351 144.09C41.403 144.679 39.3678 144.787 37.3895 144.406C35.4111 144.025 33.5433 143.164 31.9328 141.892C30.3222 140.62 29.0127 138.971 28.1071 137.074C27.2014 135.178 26.7243 133.085 26.7131 130.961C26.7079 129.968 26.8044 128.978 27.0011 128.007L33.419 96.3376C33.7307 94.7997 34.364 93.3549 35.2727 92.109C36.1814 90.8631 37.3424 89.8476 38.6707 89.137C39.9989 88.4263 41.4609 88.0385 42.9494 88.0019C44.4379 87.9653 45.9154 88.2808 47.2735 88.9253Z" fill="#CCCCCC"/>
</g>
<defs>
<clipPath id="clip0_2_193">
<rect width="439" height="332" fill="white"/>
</clipPath>
</defs>
</svg>
