<svg width="451" height="414" viewBox="0 0 451 414" fill="none" xmlns="http://www.w3.org/2000/svg">
<g clip-path="url(#clip0_2_130)" filter="url(#filter0_d_2_130)">
<path d="M312.713 406.769C306.824 401.629 303.247 393.51 304.185 385.606C305.123 377.702 310.934 370.435 318.471 368.757C326.008 367.079 334.6 371.725 336.889 379.329C338.149 364.668 339.601 349.394 347.148 336.909C353.982 325.604 365.818 317.515 378.645 316.068C391.473 314.621 404.979 320.086 412.979 330.543C420.979 341 422.938 356.201 417.335 368.206C413.207 377.05 405.603 383.632 397.635 388.986C371.889 406.143 341.01 413.12 310.68 408.633" fill="#F2F2F2"/>
<path d="M400.294 320.389C389.709 329.293 379.999 339.251 371.304 350.12C357.696 367.071 346.684 386.076 338.653 406.473C338.065 407.961 340.404 408.609 340.986 407.138C354.127 373.988 375.106 344.77 402.005 322.156C403.212 321.14 401.492 319.382 400.294 320.389Z" fill="white"/>
<path d="M222.082 68.9927H15.1396C24.2745 48.5934 38.8718 31.3207 57.2071 19.2149C75.5423 7.10923 96.8493 0.676392 118.611 0.676392C140.373 0.676392 161.68 7.10923 180.015 19.2149C198.35 31.3207 212.947 48.5934 222.082 68.9927H222.082Z" fill="#E6E6E6"/>
<path d="M210.721 171.96L219.404 167.575C220.341 167.102 221.42 167.033 222.406 167.382C223.392 167.732 224.203 168.471 224.661 169.438L257.927 239.704C258.947 241.86 259.097 244.347 258.343 246.617C257.588 248.887 255.991 250.755 253.904 251.809C251.816 252.863 249.408 253.018 247.21 252.239C245.012 251.46 243.203 249.811 242.182 247.654L208.917 177.389C208.459 176.422 208.392 175.307 208.73 174.289C209.068 173.271 209.784 172.433 210.721 171.96Z" fill="#6C63FF"/>
<path d="M243.917 190.762C244.24 188.47 242.068 186.453 239.844 186.149C237.62 185.846 235.428 186.759 233.358 187.654C229.682 189.244 225.945 190.871 222.875 193.497C219.806 196.122 217.444 199.942 217.468 204.059C217.491 207.976 219.601 211.514 221.64 214.817L240.773 245.804C242.797 249.082 245.086 252.582 248.653 253.825C251.032 254.544 253.574 254.434 255.886 253.511C259.375 252.17 262.358 249.712 264.399 246.496C266.44 243.28 267.433 239.475 267.233 235.635C266.578 226.761 259.757 219.953 254.65 212.784C249.596 205.678 245.98 197.592 244.018 189.01" fill="#2F2E41"/>
<path d="M190.015 357.949C188.989 357.951 187.997 357.568 187.223 356.871L179.932 350.317C179.51 349.938 179.165 349.477 178.916 348.96C178.667 348.443 178.519 347.881 178.48 347.305C178.441 346.729 178.513 346.15 178.691 345.603C178.868 345.056 179.149 344.55 179.516 344.114L232.411 281.352C233.153 280.474 234.202 279.935 235.328 279.855C236.454 279.775 237.564 280.159 238.416 280.923L245.708 287.477C246.558 288.243 247.079 289.327 247.157 290.49C247.235 291.653 246.863 292.8 246.123 293.68L193.229 356.441C192.829 356.916 192.336 357.296 191.781 357.556C191.227 357.817 190.624 357.951 190.015 357.949Z" fill="#6C63FF"/>
<path d="M182.456 303.214C181.628 303.215 180.818 302.967 180.125 302.5C179.432 302.033 178.885 301.368 178.552 300.585L174.666 291.444C174.214 290.376 174.19 289.167 174.6 288.081C175.01 286.995 175.82 286.121 176.853 285.651L250.622 252.204C251.656 251.737 252.827 251.713 253.879 252.136C254.93 252.559 255.777 253.396 256.232 254.463L260.117 263.604C260.57 264.672 260.593 265.882 260.183 266.968C259.773 268.054 258.963 268.927 257.93 269.397L184.161 302.844C183.624 303.088 183.043 303.214 182.456 303.214Z" fill="#6C63FF"/>
<path d="M175.712 335.297L185.366 335.793C186.407 335.846 187.426 335.471 188.199 334.748C188.971 334.026 189.434 333.016 189.486 331.941L191.414 290.97C191.44 290.437 191.364 289.905 191.19 289.403C191.016 288.901 190.749 288.439 190.403 288.044C190.056 287.649 189.638 287.328 189.172 287.1C188.705 286.872 188.2 286.741 187.684 286.715L178.03 286.219C176.989 286.165 175.97 286.541 175.198 287.264C174.425 287.986 173.962 288.996 173.91 290.071L171.982 331.042C171.931 332.117 172.295 333.169 172.994 333.967C173.693 334.765 174.671 335.244 175.712 335.297Z" fill="#6C63FF"/>
<path d="M311.764 220.5C330.211 220.5 345.165 205.055 345.165 186.004C345.165 166.952 330.211 151.507 311.764 151.507C293.317 151.507 278.363 166.952 278.363 186.004C278.363 205.055 293.317 220.5 311.764 220.5Z" fill="#6C63FF"/>
<path d="M299.291 245.686L299.35 245.402C299.492 244.709 299.456 243.989 299.246 243.315C299.035 242.64 298.658 242.034 298.15 241.557L285.398 229.576L286.894 227.8C287.233 227.398 287.492 226.931 287.656 226.426C287.82 225.921 287.886 225.387 287.85 224.855C287.815 224.324 287.678 223.804 287.448 223.327C287.218 222.85 286.899 222.425 286.51 222.075L278.606 214.969C277.82 214.263 276.794 213.907 275.755 213.982C274.715 214.056 273.746 214.554 273.062 215.366L271.829 216.829L260.269 205.967C259.757 205.487 259.132 205.154 258.456 205.003C257.78 204.852 257.078 204.887 256.419 205.106C241.031 210.228 227.223 219.454 216.392 231.851C205.561 244.248 198.089 259.378 194.732 275.712L194.674 275.996C194.531 276.69 194.567 277.409 194.777 278.084C194.988 278.758 195.366 279.364 195.873 279.841L233.754 315.431C234.266 315.912 234.891 316.245 235.567 316.396C236.243 316.547 236.945 316.511 237.604 316.292C252.992 311.17 266.8 301.945 277.631 289.548C288.463 277.15 295.934 262.021 299.291 245.686Z" fill="#2F2E41"/>
<path d="M243.63 323.846L234.45 320.722C233.46 320.385 232.64 319.656 232.171 318.694C231.701 317.733 231.621 316.619 231.947 315.597L255.65 241.312C256.377 239.032 257.952 237.144 260.027 236.063C262.102 234.983 264.508 234.797 266.715 235.549C268.922 236.3 270.75 237.926 271.797 240.069C272.843 242.212 273.022 244.697 272.295 246.977L248.592 321.262C248.266 322.284 247.56 323.131 246.629 323.615C245.699 324.1 244.62 324.183 243.63 323.846Z" fill="#6C63FF"/>
<path d="M236.894 282.872C235.078 284.234 235.196 287.247 236.538 289.104C237.88 290.961 240.044 291.944 242.109 292.85C245.778 294.459 249.514 296.087 253.477 296.524C257.44 296.962 261.737 296.042 264.575 293.15C267.275 290.399 268.255 286.369 269.121 282.555L277.249 246.776C278.109 242.991 278.938 238.854 277.31 235.349C276.148 233.087 274.297 231.285 272.043 230.219C268.678 228.575 264.891 228.085 261.237 228.82C257.583 229.555 254.251 231.477 251.729 234.306C246.033 240.985 246.075 250.781 244.669 259.562C243.27 268.261 240.189 276.579 235.608 284.02" fill="#2F2E41"/>
<path d="M296.768 195.666C296.175 194.671 295.796 193.556 295.656 192.397C295.588 191.598 295.691 190.794 295.956 190.04C296.221 189.286 296.643 188.601 297.191 188.034C297.574 187.622 298.043 187.308 298.563 187.115C299.083 186.922 299.64 186.856 300.188 186.922C301.595 187.114 302.816 188.178 303.595 189.828L311.97 179.506L312.974 180.375L303.128 192.51L302.768 191.336C302.349 189.976 301.407 188.453 300.016 188.263C299.664 188.226 299.309 188.274 298.977 188.402C298.646 188.53 298.347 188.735 298.105 189.002C297.699 189.427 297.387 189.938 297.189 190.499C296.991 191.06 296.912 191.658 296.959 192.254C297.171 194.308 298.502 196.056 300.09 197.966L299.097 198.847C298.23 197.86 297.45 196.796 296.768 195.666Z" fill="#2F2E41"/>
<path d="M302.087 169.98L301.117 170.889L305.86 176.283L306.83 175.373L302.087 169.98Z" fill="#2F2E41"/>
<path d="M317.057 187.003L316.088 187.913L320.831 193.306L321.8 192.397L317.057 187.003Z" fill="#2F2E41"/>
<path d="M336.8 188.667C327.608 183.582 317.345 177.998 312.275 168.086C309.992 163.626 308.765 158.299 309.566 153.266C309.939 150.875 310.807 148.595 312.11 146.582C313.414 144.569 315.123 142.871 317.12 141.602C325.126 136.456 335.796 137.088 344.562 139.498C353.481 142.019 361.68 146.726 368.463 153.219C375.368 159.706 380.681 167.796 383.963 176.821C385.566 181.275 386.586 185.931 386.994 190.665C387.427 197.089 387.084 203.543 385.975 209.88C383.987 222.3 380.261 234.369 378.87 246.898C377.617 258.177 378.227 270.185 383.683 280.305C387.917 288.158 395.067 293.982 403.115 297.211C411.224 300.529 420.171 300.971 428.55 298.468C430.581 297.826 432.55 296.993 434.434 295.979C435.556 295.376 434.564 293.624 433.442 294.227C425.693 298.387 416.532 299.006 408.142 296.756C399.741 294.503 391.91 289.368 386.963 281.919C380.681 272.461 379.637 260.502 380.591 249.369C381.677 236.692 385.457 224.504 387.605 212.014C388.813 205.592 389.308 199.048 389.08 192.51C388.831 187.56 387.938 182.667 386.427 177.962C383.365 168.727 378.28 160.347 371.568 153.475C364.856 146.603 356.698 141.425 347.73 138.344C338.881 135.401 328.436 134.315 319.641 138.027C315.241 139.884 311.361 143.071 309.263 147.556C307.091 152.199 306.935 157.554 308.121 162.506C310.768 173.557 319.594 180.873 328.697 186.363C331.036 187.773 333.421 189.099 335.809 190.419C336.923 191.036 337.917 189.284 336.8 188.667V188.667Z" fill="#2F2E41"/>
<path d="M118.612 236.74C55.4148 236.74 4.00035 183.639 4.00035 118.37C3.95907 101.219 7.55881 84.2671 14.5461 68.7083C23.7315 48.1896 38.412 30.8153 56.8528 18.6383C75.2936 6.46124 96.724 -0.00955634 118.612 -0.00952148C140.5 -0.00948663 161.93 6.46138 180.371 18.6385C198.812 30.8155 213.492 48.1899 222.677 68.7086C229.665 84.2673 233.264 101.219 233.223 118.37C233.223 183.639 181.809 236.74 118.612 236.74ZM118.612 1.35277C96.9848 1.3988 75.819 7.81344 57.5973 19.8442C39.3756 31.875 24.8536 49.023 15.7348 69.2767C8.82762 84.6575 5.26922 101.415 5.3102 118.37C5.3102 182.893 56.137 235.387 118.612 235.387C181.086 235.387 231.913 182.893 231.913 118.37C231.954 101.415 228.396 84.6577 221.489 69.277C212.37 49.0233 197.848 31.8752 179.626 19.8443C161.404 7.81349 140.239 1.3988 118.612 1.35277Z" fill="#3F3D56"/>
<path d="M160.712 56.2922H75.9383C75.4178 56.2929 74.9022 56.1876 74.4211 55.9823C73.94 55.7771 73.5028 55.4759 73.1345 55.096C72.7662 54.7161 72.474 54.2649 72.2746 53.7683C72.0753 53.2717 71.9727 52.7394 71.9727 52.2018C71.9727 51.6642 72.0753 51.1318 72.2746 50.6352C72.474 50.1386 72.7662 49.6874 73.1345 49.3075C73.5028 48.9276 73.94 48.6264 74.4211 48.4212C74.9022 48.2159 75.4178 48.1106 75.9383 48.1113H160.712C161.232 48.1106 161.748 48.2159 162.229 48.4212C162.71 48.6264 163.147 48.9276 163.515 49.3075C163.884 49.6874 164.176 50.1386 164.375 50.6352C164.575 51.1318 164.677 51.6642 164.677 52.2018C164.677 52.7394 164.575 53.2717 164.375 53.7683C164.176 54.2649 163.884 54.7161 163.515 55.096C163.147 55.4759 162.71 55.7771 162.229 55.9823C161.748 56.1876 161.232 56.2929 160.712 56.2922Z" fill="white"/>
<path d="M133.533 38.7058H103.118C102.597 38.7065 102.082 38.6012 101.601 38.3959C101.12 38.1906 100.682 37.8895 100.314 37.5096C99.9459 37.1297 99.6537 36.6785 99.4543 36.1819C99.2549 35.6853 99.1523 35.1529 99.1523 34.6153C99.1523 34.0777 99.2549 33.5454 99.4543 33.0488C99.6537 32.5522 99.9459 32.101 100.314 31.7211C100.682 31.3412 101.12 31.04 101.601 30.8348C102.082 30.6295 102.597 30.5242 103.118 30.5249H133.533C134.053 30.5242 134.569 30.6295 135.05 30.8348C135.531 31.04 135.968 31.3412 136.337 31.7211C136.705 32.101 136.997 32.5522 137.196 33.0488C137.396 33.5454 137.498 34.0777 137.498 34.6153C137.498 35.1529 137.396 35.6853 137.196 36.1819C136.997 36.6785 136.705 37.1297 136.337 37.5096C135.968 37.8895 135.531 38.1906 135.05 38.3959C134.569 38.6012 134.053 38.7065 133.533 38.7058Z" fill="white"/>
<path d="M76.0234 109.842L73.4653 108.976C64.3351 105.797 58.3368 103.767 56.2003 98.7931C55.7854 97.8713 55.5504 96.8741 55.5087 95.8584C55.467 94.8428 55.6194 93.8286 55.9571 92.8738C56.2949 91.919 56.8115 91.0422 57.4774 90.2936C58.1433 89.545 58.9454 88.9391 59.838 88.5107C59.9037 88.4791 59.9699 88.4485 60.0364 88.419C61.1205 87.9294 62.2946 87.6894 63.4775 87.7155C64.6604 87.7417 65.8235 88.0334 66.8863 88.5705C67.2139 87.3964 67.7851 86.31 68.5601 85.3867C69.3352 84.4634 70.2955 83.7255 71.3744 83.224C73.1821 82.37 75.2442 82.2926 77.1072 83.0088C78.9701 83.7251 80.4813 85.1763 81.3082 87.0432C81.3383 87.1113 81.3675 87.1798 81.3957 87.2488C83.5323 92.2226 80.9643 98.178 77.1192 107.302L76.0234 109.842Z" fill="#FF6584"/>
<path d="M154.785 187.666H81.2136C78.9337 187.663 76.7479 186.727 75.1358 185.062C73.5237 183.397 72.6169 181.139 72.6143 178.785V130.431C72.6169 128.076 73.5237 125.819 75.1358 124.154C76.7479 122.489 78.9337 121.552 81.2136 121.55H154.785C157.065 121.552 159.251 122.489 160.863 124.154C162.475 125.819 163.382 128.076 163.385 130.431V178.785C163.382 181.139 162.475 183.397 160.863 185.062C159.251 186.727 157.065 187.663 154.785 187.666ZM81.2136 123.523C79.4403 123.525 77.7403 124.254 76.4864 125.549C75.2325 126.844 74.5272 128.6 74.5252 130.431V178.785C74.5272 180.616 75.2325 182.372 76.4864 183.667C77.7403 184.962 79.4403 185.69 81.2136 185.692H154.785C156.559 185.69 158.259 184.962 159.513 183.667C160.766 182.372 161.472 180.616 161.474 178.785V130.431C161.472 128.6 160.766 126.844 159.513 125.549C158.259 124.254 156.559 123.525 154.785 123.523H81.2136Z" fill="#3F3D56"/>
<path d="M117.606 154.171C115.64 154.175 113.72 153.555 112.106 152.395L75.1895 125.738L76.2844 124.121L113.201 150.778C114.478 151.691 115.991 152.187 117.544 152.2C119.097 152.212 120.618 151.741 121.908 150.848L159.912 124.312L160.982 125.947L122.978 152.483C121.391 153.587 119.52 154.175 117.606 154.171Z" fill="#3F3D56"/>
<path d="M117.522 165.956C123.855 165.956 128.988 160.655 128.988 154.115C128.988 147.575 123.855 142.273 117.522 142.273C111.19 142.273 106.057 147.575 106.057 154.115C106.057 160.655 111.19 165.956 117.522 165.956Z" fill="#3F3D56"/>
<path d="M446.221 410H156.553C156.45 410 156.348 409.98 156.253 409.939C156.159 409.899 156.072 409.84 156 409.765C155.927 409.69 155.869 409.601 155.83 409.503C155.791 409.405 155.771 409.301 155.771 409.195C155.771 409.089 155.791 408.984 155.83 408.886C155.869 408.788 155.927 408.699 156 408.624C156.072 408.549 156.159 408.49 156.253 408.45C156.348 408.409 156.45 408.389 156.553 408.389H446.221C446.323 408.389 446.425 408.409 446.52 408.45C446.615 408.49 446.701 408.549 446.773 408.624C446.846 408.699 446.904 408.788 446.943 408.886C446.982 408.984 447.003 409.089 447.003 409.195C447.003 409.301 446.982 409.405 446.943 409.503C446.904 409.601 446.846 409.69 446.773 409.765C446.701 409.84 446.615 409.899 446.52 409.939C446.425 409.98 446.323 410 446.221 410Z" fill="#E6E6E6"/>
</g>
<defs>
<filter id="filter0_d_2_130" x="0" y="0" width="451" height="418" filterUnits="userSpaceOnUse" color-interpolation-filters="sRGB">
<feFlood flood-opacity="0" result="BackgroundImageFix"/>
<feColorMatrix in="SourceAlpha" type="matrix" values="0 0 0 0 0 0 0 0 0 0 0 0 0 0 0 0 0 0 127 0" result="hardAlpha"/>
<feOffset dy="4"/>
<feGaussianBlur stdDeviation="2"/>
<feComposite in2="hardAlpha" operator="out"/>
<feColorMatrix type="matrix" values="0 0 0 0 0 0 0 0 0 0 0 0 0 0 0 0 0 0 0.25 0"/>
<feBlend mode="normal" in2="BackgroundImageFix" result="effect1_dropShadow_2_130"/>
<feBlend mode="normal" in="SourceGraphic" in2="effect1_dropShadow_2_130" result="shape"/>
</filter>
<clipPath id="clip0_2_130">
<rect width="443" height="410" fill="white" transform="translate(4)"/>
</clipPath>
</defs>
</svg>
