<svg width="531" height="374" viewBox="0 0 531 374" fill="none" xmlns="http://www.w3.org/2000/svg">
<g clip-path="url(#clip0_2_92)">
<path d="M190.47 224.448C208.667 189.07 243.379 161.906 280.125 164.523C253.02 197.098 237.215 239.219 235.505 283.433C234.902 300.487 235.838 319.524 225.592 332.294C219.217 340.24 209.472 344.088 199.891 344.896C190.31 345.703 180.731 343.79 171.277 341.885L168.984 342.663C168.111 301.979 172.272 259.826 190.47 224.448Z" fill="#F0F0F0"/>
<path d="M280.18 165.375C253.007 179.831 229.837 203.976 215.614 233.422C212.539 239.788 209.921 246.542 208.779 253.683C207.636 260.827 208.434 267.627 210.642 274.412C212.661 280.616 215.375 286.702 215.994 293.34C216.647 300.336 214.318 306.877 210.125 312.069C204.995 318.421 198.106 322.358 191.248 325.948C183.633 329.935 175.667 333.942 170.273 341.383C169.62 342.284 168.392 341.111 169.045 340.211C178.428 327.266 194.49 324.832 205.629 314.404C210.826 309.538 214.728 302.912 214.482 295.148C214.266 288.358 211.472 282.079 209.379 275.817C207.181 269.243 206.085 262.632 206.873 255.623C207.68 248.453 210.064 241.572 212.979 235.147C219.551 220.656 228.546 207.353 238.849 195.854C250.691 182.635 264.492 171.753 279.655 163.677C280.593 163.178 281.113 164.879 280.18 165.375Z" fill="white"/>
<path d="M219.78 223.581C215.614 220.215 212.667 215.322 211.464 209.775C210.262 204.229 210.882 198.391 213.215 193.304C213.69 192.276 215.157 193.044 214.681 194.073C212.501 198.806 211.924 204.244 213.053 209.406C214.183 214.568 216.944 219.114 220.84 222.223C221.686 222.9 220.621 224.254 219.78 223.581Z" fill="white"/>
<path d="M209.244 271.416C219.682 269.73 229.162 263.759 235.793 254.692C236.45 253.793 237.677 254.966 237.022 255.864C230.105 265.285 220.229 271.477 209.363 273.205C208.327 273.369 208.214 271.579 209.244 271.416V271.416Z" fill="white"/>
<path d="M251.492 184.842C252.858 186.516 254.579 187.788 256.501 188.545C258.422 189.302 260.483 189.52 262.499 189.179C263.532 189.001 263.644 190.79 262.618 190.968C260.389 191.333 258.113 191.089 255.988 190.258C253.864 189.427 251.956 188.034 250.432 186.2C250.275 186.04 250.179 185.821 250.163 185.586C250.148 185.351 250.214 185.118 250.348 184.935C250.489 184.756 250.688 184.646 250.903 184.628C251.117 184.611 251.329 184.688 251.492 184.842Z" fill="white"/>
<path d="M353.237 276.127C352.595 276.259 351.953 276.391 351.304 276.536C342.676 278.355 334.196 280.946 325.947 284.283C325.306 284.529 324.659 284.79 324.025 285.057C304.23 293.33 285.997 305.593 270.252 321.222C263.992 327.448 258.17 334.191 252.836 341.393C245.469 351.34 238.199 362.772 228.573 369.257C227.575 369.946 226.54 370.566 225.473 371.114L170.021 345.694C169.921 345.566 169.815 345.452 169.715 345.324L167.459 344.421C167.711 344.029 167.979 343.627 168.231 343.235C168.376 343.006 168.533 342.784 168.679 342.555C168.779 342.405 168.881 342.254 168.964 342.112C168.997 342.062 169.031 342.012 169.059 341.976C169.142 341.833 169.233 341.711 169.311 341.583C170.807 339.335 172.319 337.095 173.849 334.863C173.854 334.849 173.854 334.849 173.872 334.841C185.567 317.865 198.647 301.819 213.515 288.478C213.963 288.077 214.415 287.661 214.888 287.272C221.62 281.299 228.782 275.944 236.303 271.261C240.429 268.712 244.669 266.395 249.007 264.319C260.225 258.979 272.133 255.623 284.295 254.373C308.539 251.885 333.234 257.993 351.828 274.826C352.303 275.257 352.767 275.682 353.237 276.127Z" fill="#F0F0F0"/>
<path d="M352.821 276.848C323.249 270.311 291.596 274.172 264.198 288.219C258.275 291.255 252.505 294.906 247.703 299.848C242.899 304.791 239.832 310.752 237.898 317.639C236.13 323.935 234.982 330.601 231.86 336.313C228.57 342.333 223.146 346.006 216.971 347.361C209.414 349.02 201.769 347.579 194.337 345.882C186.086 343.999 177.542 341.898 169.182 344.25C168.169 344.535 167.828 342.781 168.84 342.497C183.384 338.404 197.534 347.149 212.108 346.234C218.909 345.807 225.634 343.113 229.668 336.749C233.194 331.185 234.384 324.312 236.124 317.92C237.951 311.209 240.677 305.201 245.125 300.129C249.675 294.94 255.327 291.033 261.154 287.842C274.296 280.646 288.725 276.009 303.217 273.683C319.873 271.008 336.821 271.502 353.326 275.143C354.348 275.369 353.836 277.073 352.821 276.848V276.848Z" fill="white"/>
<path d="M272.885 283.133C271.393 277.674 271.706 271.806 273.767 266.577C275.828 261.349 279.504 257.1 284.138 254.59C285.077 254.086 285.83 255.675 284.89 256.18C280.571 258.509 277.147 262.467 275.237 267.34C273.326 272.213 273.055 277.68 274.472 282.755C274.778 283.858 273.19 284.23 272.885 283.133Z" fill="white"/>
<path d="M238.413 314.316C247.666 319.916 258.488 321.456 268.723 318.628C269.736 318.347 270.078 320.101 269.065 320.382C258.41 323.302 247.151 321.674 237.534 315.824C236.618 315.265 237.502 313.761 238.413 314.316Z" fill="white"/>
<path d="M247.604 301.96C239.838 260.461 230.131 246.626 230.131 246.626L226.422 243.447L221.962 239.619L221.984 239.126L220.926 238.729L220.678 238.516L220.271 238.17L220.205 238.248L220.067 238.406L199.886 230.825L174.283 221.214L162.427 204.183C160.496 201.409 158.01 199.167 155.164 197.633C152.318 196.099 149.189 195.314 146.023 195.34L108.159 195.649C103.039 195.691 98.119 197.848 94.3654 201.696L69.4782 227.209L30.6991 247.677L30.6337 247.605L30.2265 247.926L24.2348 251.093L24.482 252.515L20.7735 255.472C20.7735 255.472 11.066 268.346 3.30003 306.961C1.32445 316.786 0.35199 337.863 0.000986395 363.834C-0.0166445 365.148 0.202235 366.453 0.644892 367.672C1.08755 368.892 1.74516 370.002 2.57948 370.938C3.4138 371.874 4.40818 372.618 5.50481 373.125C6.60145 373.633 7.77845 373.895 8.96739 373.895H216.094V373.895H241.946C243.134 373.894 244.31 373.633 245.406 373.126C246.502 372.619 247.496 371.876 248.33 370.941C249.164 370.006 249.822 368.897 250.266 367.679C250.709 366.461 250.929 365.158 250.913 363.845C250.57 335.583 249.598 312.616 247.604 301.96Z" fill="#323232"/>
<path d="M274.179 36.1905C266.121 36.1905 258.392 39.7284 252.694 46.0259C246.996 52.3233 243.795 60.8645 243.795 69.7705C243.795 78.6764 246.996 87.2176 252.694 93.5151C258.392 99.8126 266.121 103.35 274.179 103.35H500.615C508.674 103.35 516.402 99.8126 522.1 93.5151C527.799 87.2176 531 78.6764 531 69.7705C531 60.8645 527.799 52.3233 522.1 46.0259C516.402 39.7284 508.674 36.1905 500.615 36.1905H274.179Z" fill="#E5E5E5"/>
<path d="M274.18 42.9865C267.752 42.9865 261.588 45.8083 257.043 50.8313C252.498 55.8543 249.944 62.6669 249.944 69.7705C249.944 76.874 252.498 83.6866 257.043 88.7096C261.588 93.7326 267.752 96.5545 274.18 96.5545H500.616C507.043 96.5545 513.208 93.7326 517.753 88.7096C522.297 83.6866 524.851 76.874 524.851 69.7705C524.851 62.6669 522.297 55.8543 517.753 50.8313C513.208 45.8083 507.043 42.9865 500.616 42.9865H274.18Z" fill="white"/>
<path d="M133.037 195.724C160.433 195.724 182.642 171.179 182.642 140.902C182.642 110.625 160.433 86.0798 133.037 86.0798C105.641 86.0798 83.4316 110.625 83.4316 140.902C83.4316 171.179 105.641 195.724 133.037 195.724Z" fill="#9E616A"/>
<path d="M120.347 193.04C120.135 192.524 119.924 192.007 119.713 191.487C119.794 191.49 119.875 191.503 119.956 191.506L120.347 193.04Z" fill="#2F2E41"/>
<path d="M82.052 88.5728C84.5609 86.3609 87.4932 84.3258 90.7009 84.4402C93.9085 84.5544 97.1614 87.7562 96.4968 91.2262C102.389 79.697 111.767 70.8298 122.985 66.1808C134.203 61.5319 146.544 61.3985 157.843 65.8039C165.815 68.9124 173.633 75.1314 175.465 84.2527C175.935 86.5941 176.036 89.1615 177.359 91.0629C179.026 93.4601 182.218 94.0024 184.845 93.1591C184.872 93.1506 184.898 93.1421 184.924 93.1335C185.368 92.9659 185.847 92.9495 186.3 93.0862C186.752 93.2229 187.157 93.5065 187.462 93.9003C187.767 94.2942 187.958 94.7801 188.011 95.2952C188.063 95.8104 187.974 96.3311 187.756 96.79L185.5 101.439C188.344 102.14 191.298 102.071 194.112 101.237C194.58 101.102 195.074 101.129 195.527 101.316C195.979 101.503 196.368 101.84 196.641 102.282C196.913 102.723 197.056 103.246 197.048 103.78C197.041 104.314 196.884 104.833 196.599 105.264C189.161 116.551 176.734 123.839 164.053 123.753C155.04 123.692 145.934 120.259 137.163 122.55C133.769 123.436 130.598 125.151 127.883 127.568C125.167 129.985 122.975 133.043 121.469 136.519C119.962 139.994 119.179 143.798 119.176 147.652C119.173 151.505 119.951 155.311 121.452 158.789C118.757 155.531 113.548 156.302 110.792 159.496C108.035 162.69 107.322 167.457 107.599 171.86C108.024 178.594 110.412 184.94 112.928 191.116C91.827 190.382 71.8684 174.023 65.1504 151.896C58.4041 129.678 65.4744 103.188 82.052 88.5728Z" fill="#2F2E41"/>
<path opacity="0.2" d="M48.8242 305.537L62.7373 389.197L71.0855 390L48.8242 305.537Z" fill="black"/>
<path opacity="0.2" d="M202.08 299.227L188.167 389.136L179.818 390L202.08 299.227Z" fill="black"/>
<path d="M93.919 60.4172C91.2514 61.6483 88.4678 60.2991 87.3004 57.2094C86.1152 54.0725 87.2222 50.8881 89.9326 49.6373C92.6432 48.3864 95.3772 49.7388 96.5815 52.9264C97.7678 56.0661 96.6729 59.1464 93.919 60.4172ZM88.8089 43.4628L86.6878 44.4416C86.158 44.6832 85.5653 44.6963 85.0272 44.4781C84.489 44.26 84.0445 43.8265 83.7817 43.2636L83.6768 43.0368C81.3945 38.4879 81.1332 32.9594 82.9042 26.6135C84.5448 20.9209 85.2262 16.9174 83.8559 13.2903C82.2714 9.09679 78.8881 7.78316 74.5735 9.6861C72.9002 10.4583 72.3677 10.446 71.0508 11.8898C70.7643 12.2076 70.4229 12.4585 70.0468 12.6274C69.6708 12.7963 69.2678 12.8797 68.8619 12.8728C68.4695 12.8677 68.0821 12.7753 67.7227 12.6012C67.3633 12.427 67.0394 12.1747 66.7702 11.8592C66.2515 11.2512 65.9609 10.4483 65.9571 9.6127C65.9533 8.77709 66.2365 7.97101 66.7496 7.35725C68.963 4.79652 71.6327 2.77066 74.5902 1.4075C83.8603 -2.87047 88.5269 3.44534 90.6624 9.0974C92.7512 14.6258 91.5762 19.7552 89.6883 26.3982C88.1062 31.9182 88.1984 36.0085 89.9956 40.0754C90.1253 40.3829 90.1975 40.7162 90.2078 41.0552C90.2181 41.3943 90.1662 41.7322 90.0554 42.0485C89.9446 42.3649 89.777 42.6533 89.5629 42.8963C89.3487 43.1393 89.0922 43.332 88.809 43.4627L88.8089 43.4628Z" fill="#1D0ED0"/>
<path d="M324.197 85.7859H279.144C279.001 85.7869 278.859 85.7567 278.727 85.6969C278.594 85.6371 278.474 85.549 278.372 85.4375C278.271 85.326 278.19 85.1934 278.135 85.0474C278.08 84.9014 278.052 84.7447 278.052 84.5866C278.052 84.4284 278.08 84.2718 278.135 84.1257C278.19 83.9797 278.271 83.8471 278.372 83.7356C278.474 83.6242 278.594 83.536 278.727 83.4762C278.859 83.4164 279.001 83.3862 279.144 83.3873H324.197C324.483 83.3894 324.757 83.5167 324.959 83.7414C325.161 83.9661 325.275 84.2699 325.275 84.5866C325.275 84.9032 325.161 85.207 324.959 85.4317C324.757 85.6564 324.483 85.7837 324.197 85.7859Z" fill="#1D0ED0"/>
<path d="M381.348 86.1856H336.296C336.153 86.1866 336.011 86.1564 335.878 86.0966C335.746 86.0368 335.625 85.9487 335.524 85.8372C335.422 85.7257 335.341 85.5932 335.286 85.4471C335.231 85.3011 335.203 85.1445 335.203 84.9863C335.203 84.8281 335.231 84.6715 335.286 84.5254C335.341 84.3794 335.422 84.2468 335.524 84.1353C335.625 84.0239 335.746 83.9357 335.878 83.8759C336.011 83.8161 336.153 83.7859 336.296 83.787H381.348C381.491 83.7859 381.633 83.8161 381.766 83.8759C381.898 83.9357 382.019 84.0239 382.12 84.1353C382.222 84.2468 382.302 84.3794 382.357 84.5254C382.412 84.6715 382.441 84.8281 382.441 84.9863C382.441 85.1445 382.412 85.3011 382.357 85.4471C382.302 85.5932 382.222 85.7257 382.12 85.8372C382.019 85.9487 381.898 86.0368 381.766 86.0966C381.633 86.1564 381.491 86.1866 381.348 86.1856Z" fill="#1D0ED0"/>
<path d="M438.499 86.5853H393.447C393.16 86.5832 392.886 86.4559 392.684 86.2312C392.482 86.0065 392.369 85.7027 392.369 85.386C392.369 85.0694 392.482 84.7656 392.684 84.5409C392.886 84.3162 393.16 84.1889 393.447 84.1868H438.499C438.642 84.1857 438.784 84.2159 438.917 84.2757C439.049 84.3355 439.17 84.4237 439.271 84.5351C439.373 84.6466 439.454 84.7792 439.509 84.9252C439.564 85.0712 439.592 85.2279 439.592 85.386C439.592 85.5442 439.564 85.7009 439.509 85.8469C439.454 85.9929 439.373 86.1255 439.271 86.237C439.17 86.3484 439.049 86.4366 438.917 86.4964C438.784 86.5562 438.642 86.5864 438.499 86.5853H438.499Z" fill="#1D0ED0"/>
<path d="M495.652 86.9851H450.599C450.313 86.9829 450.039 86.8556 449.837 86.631C449.635 86.4063 449.521 86.1025 449.521 85.7858C449.521 85.4691 449.635 85.1653 449.837 84.9407C450.039 84.716 450.313 84.5887 450.599 84.5865H495.652C495.938 84.5887 496.212 84.716 496.414 84.9407C496.616 85.1653 496.729 85.4691 496.729 85.7858C496.729 86.1025 496.616 86.4063 496.414 86.631C496.212 86.8556 495.938 86.9829 495.652 86.9851Z" fill="#1D0ED0"/>
<path d="M301.571 74.7487C306.195 74.7487 309.944 70.6055 309.944 65.4947C309.944 60.3839 306.195 56.2408 301.571 56.2408C296.946 56.2408 293.197 60.3839 293.197 65.4947C293.197 70.6055 296.946 74.7487 301.571 74.7487Z" fill="#1D0ED0"/>
<path d="M359.068 74.7487C363.692 74.7487 367.441 70.6055 367.441 65.4947C367.441 60.3839 363.692 56.2408 359.068 56.2408C354.443 56.2408 350.694 60.3839 350.694 65.4947C350.694 70.6055 354.443 74.7487 359.068 74.7487Z" fill="#1D0ED0"/>
<path d="M416.565 74.7487C421.189 74.7487 424.938 70.6055 424.938 65.4947C424.938 60.3839 421.189 56.2408 416.565 56.2408C411.94 56.2408 408.191 60.3839 408.191 65.4947C408.191 70.6055 411.94 74.7487 416.565 74.7487Z" fill="#1D0ED0"/>
<path d="M474.062 74.7487C478.686 74.7487 482.435 70.6055 482.435 65.4947C482.435 60.3839 478.686 56.2408 474.062 56.2408C469.437 56.2408 465.688 60.3839 465.688 65.4947C465.688 70.6055 469.437 74.7487 474.062 74.7487Z" fill="#1D0ED0"/>
</g>
<defs>
<clipPath id="clip0_2_92">
<rect width="531" height="390" fill="white"/>
</clipPath>
</defs>
</svg>
