<svg width="529" height="816" viewBox="0 0 529 816" fill="none" xmlns="http://www.w3.org/2000/svg">
<path d="M326.503 384.254C326.503 215.803 505.905 103.855 442.521 14.8716C435.146 4.51839 422.298 0 409.587 0H50.0039C22.3897 0 0.00390625 22.3858 0.00390625 50V763C0.00390625 790.614 22.3897 813 50.0039 813H479.526C490.51 813 501.633 809.637 509.169 801.646C601.121 704.154 326.503 555.436 326.503 384.254Z" fill="url(#paint0_linear_2_11)"/>
<g style="mix-blend-mode:overlay" opacity="0.5" filter="url(#filter0_d_2_11)">
<path d="M50.9601 1.18414L190.15 1.07136C299.658 0.982601 117.354 29.4459 253.308 134.653C389.263 239.86 -81.7244 292.854 100.946 487.081C246.745 642.103 189.57 758.594 160.548 799.306C152.941 809.977 140.327 815.056 127.222 815.067L51.6594 815.128C24.0452 815.15 1.64133 792.783 1.61895 765.169L1.51838 641.041L1.31169 385.925L1.0405 51.2164C1.01813 23.6022 23.3459 1.20651 50.9601 1.18414Z" fill="url(#paint1_linear_2_11)" shape-rendering="crispEdges"/>
</g>
<g clip-path="url(#clip0_2_11)">
<path d="M411.365 652.034H143.827C142.691 652.034 141.602 652.659 140.798 653.772C139.995 654.884 139.544 656.393 139.544 657.967C139.544 659.54 139.995 661.049 140.798 662.162C141.602 663.275 142.691 663.9 143.827 663.9H151.405V805.832C151.405 807.405 151.857 808.914 152.66 810.027C153.463 811.139 154.553 811.765 155.688 811.765C156.824 811.765 157.914 811.139 158.717 810.027C159.52 808.914 159.972 807.405 159.972 805.832L160.037 663.9H374.763L394.561 805.832C394.561 807.405 395.013 808.914 395.816 810.027C396.619 811.139 397.709 811.765 398.845 811.765C399.981 811.765 401.07 811.139 401.873 810.027C402.677 808.914 403.128 807.405 403.128 805.832L404.374 663.9H411.365C412.501 663.9 413.59 663.275 414.394 662.162C415.197 661.049 415.648 659.54 415.648 657.967C415.648 656.393 415.197 654.884 414.394 653.772C413.59 652.659 412.501 652.034 411.365 652.034Z" fill="#CCCCCC"/>
<path d="M190.201 625.598V650.722H144.757C143.566 650.779 142.379 650.511 141.263 649.933C140.147 649.355 139.124 648.478 138.252 647.352C137.381 646.226 136.678 644.873 136.184 643.371C135.69 641.869 135.414 640.247 135.373 638.597C135.331 636.947 135.525 635.302 135.942 633.756C136.36 632.21 136.993 630.793 137.806 629.586C138.619 628.379 139.595 627.406 140.68 626.721C141.764 626.037 142.935 625.655 144.126 625.598C144.337 625.588 144.547 625.588 144.757 625.598L190.201 625.598Z" fill="#F2F2F2"/>
<path d="M191.317 650.529C191.317 650.785 191.244 651.031 191.113 651.212C190.982 651.393 190.805 651.495 190.62 651.495H143.948C141.415 651.493 138.985 650.097 137.194 647.614C135.404 645.132 134.397 641.766 134.397 638.257C134.397 634.747 135.404 631.381 137.194 628.899C138.985 626.416 141.415 625.021 143.948 625.018H190.62C190.711 625.018 190.802 625.043 190.887 625.091C190.972 625.139 191.049 625.211 191.114 625.3C191.179 625.39 191.231 625.497 191.266 625.614C191.301 625.732 191.319 625.857 191.319 625.985C191.319 626.112 191.301 626.237 191.266 626.355C191.231 626.472 191.179 626.579 191.114 626.669C191.049 626.758 190.972 626.83 190.887 626.878C190.802 626.926 190.711 626.951 190.62 626.951H143.948C141.786 626.955 139.713 628.148 138.185 630.268C136.657 632.388 135.798 635.261 135.798 638.257C135.798 641.252 136.657 644.125 138.185 646.245C139.713 648.365 141.786 649.558 143.948 649.562H190.62C190.805 649.563 190.982 649.664 191.113 649.846C191.244 650.027 191.317 650.272 191.317 650.529Z" fill="#1A1087"/>
<path d="M190.201 631.396H141.367C141.33 631.396 141.294 631.376 141.268 631.34C141.242 631.304 141.227 631.255 141.227 631.204C141.226 631.153 141.241 631.104 141.266 631.067C141.292 631.031 141.327 631.01 141.364 631.009H190.201C190.238 631.01 190.273 631.03 190.299 631.067C190.324 631.103 190.339 631.152 190.339 631.203C190.339 631.253 190.324 631.302 190.299 631.339C190.273 631.375 190.238 631.395 190.201 631.396Z" fill="#CCCCCC"/>
<path d="M190.201 636.034H141.367C141.33 636.034 141.294 636.014 141.268 635.979C141.242 635.943 141.227 635.894 141.227 635.843C141.226 635.792 141.241 635.742 141.266 635.706C141.292 635.669 141.327 635.648 141.364 635.648H190.201C190.238 635.648 190.273 635.669 190.299 635.705C190.324 635.741 190.339 635.79 190.339 635.841C190.339 635.892 190.324 635.941 190.299 635.977C190.273 636.013 190.238 636.034 190.201 636.034Z" fill="#CCCCCC"/>
<path d="M190.201 640.672H141.367C141.33 640.673 141.294 640.653 141.268 640.617C141.242 640.581 141.227 640.532 141.227 640.481C141.226 640.43 141.241 640.381 141.266 640.344C141.292 640.307 141.327 640.287 141.364 640.286H190.201C190.238 640.286 190.273 640.307 190.299 640.343C190.324 640.379 190.339 640.428 190.339 640.479C190.339 640.53 190.324 640.579 190.299 640.615C190.273 640.651 190.238 640.672 190.201 640.672Z" fill="#CCCCCC"/>
<path d="M190.201 645.311H141.367C141.33 645.311 141.294 645.291 141.268 645.255C141.242 645.219 141.227 645.17 141.227 645.119C141.226 645.068 141.241 645.019 141.266 644.982C141.292 644.946 141.327 644.925 141.364 644.924H190.201C190.238 644.925 190.273 644.945 190.299 644.981C190.324 645.018 190.339 645.066 190.339 645.117C190.339 645.168 190.324 645.217 190.299 645.253C190.273 645.29 190.238 645.31 190.201 645.311Z" fill="#CCCCCC"/>
<path d="M181.634 599.128V624.252H136.191C133.786 624.368 131.446 623.156 129.686 620.882C127.926 618.608 126.89 615.459 126.806 612.127C126.723 608.796 127.598 605.554 129.239 603.117C130.881 600.679 133.155 599.244 135.56 599.128C135.77 599.118 135.981 599.118 136.191 599.128H181.634Z" fill="#F2F2F2"/>
<path d="M182.751 624.059C182.751 624.315 182.677 624.561 182.546 624.742C182.415 624.923 182.238 625.025 182.053 625.025H135.382C132.847 625.025 130.416 623.631 128.624 621.148C126.831 618.665 125.824 615.298 125.824 611.787C125.824 608.276 126.831 604.909 128.624 602.426C130.416 599.943 132.847 598.549 135.382 598.549H182.053C182.145 598.549 182.235 598.574 182.32 598.622C182.405 598.671 182.482 598.742 182.546 598.832C182.611 598.921 182.663 599.028 182.698 599.145C182.733 599.262 182.751 599.388 182.751 599.515C182.751 599.642 182.733 599.767 182.698 599.885C182.663 600.002 182.611 600.108 182.546 600.198C182.482 600.288 182.405 600.359 182.32 600.408C182.235 600.456 182.145 600.481 182.053 600.481H135.382C133.217 600.481 131.141 601.672 129.61 603.793C128.079 605.913 127.219 608.789 127.219 611.787C127.219 614.785 128.079 617.661 129.61 619.781C131.141 621.902 133.217 623.093 135.382 623.093H182.053C182.238 623.093 182.415 623.195 182.546 623.376C182.677 623.557 182.751 623.803 182.751 624.059Z" fill="#3F3D56"/>
<path d="M181.634 604.926H132.8C132.764 604.926 132.728 604.906 132.702 604.871C132.675 604.835 132.661 604.786 132.66 604.735C132.66 604.684 132.674 604.634 132.7 604.598C132.726 604.561 132.761 604.54 132.798 604.54H181.634C181.671 604.54 181.706 604.561 181.732 604.597C181.758 604.633 181.773 604.682 181.773 604.733C181.773 604.784 181.758 604.833 181.732 604.869C181.706 604.905 181.671 604.926 181.634 604.926Z" fill="#CCCCCC"/>
<path d="M181.634 609.565H132.8C132.764 609.565 132.728 609.545 132.702 609.509C132.675 609.473 132.661 609.424 132.66 609.373C132.66 609.322 132.674 609.273 132.7 609.236C132.726 609.2 132.761 609.179 132.798 609.178H181.634C181.671 609.178 181.706 609.199 181.732 609.235C181.758 609.271 181.773 609.32 181.773 609.371C181.773 609.422 181.758 609.471 181.732 609.507C181.706 609.543 181.671 609.564 181.634 609.565Z" fill="#CCCCCC"/>
<path d="M181.634 614.203H132.8C132.764 614.203 132.728 614.183 132.702 614.147C132.675 614.111 132.661 614.062 132.66 614.011C132.66 613.96 132.674 613.911 132.7 613.874C132.726 613.838 132.761 613.817 132.798 613.816H181.634C181.671 613.817 181.706 613.837 181.732 613.874C181.758 613.91 181.773 613.959 181.773 614.01C181.773 614.06 181.758 614.109 181.732 614.146C181.706 614.182 181.671 614.202 181.634 614.203Z" fill="#CCCCCC"/>
<path d="M181.634 618.841H132.8C132.764 618.841 132.728 618.821 132.702 618.785C132.675 618.749 132.661 618.701 132.66 618.65C132.66 618.598 132.674 618.549 132.7 618.513C132.726 618.476 132.761 618.455 132.798 618.454H181.634C181.671 618.455 181.706 618.476 181.732 618.512C181.758 618.548 181.773 618.597 181.773 618.648C181.773 618.699 181.758 618.748 181.732 618.784C181.706 618.82 181.671 618.84 181.634 618.841Z" fill="#CCCCCC"/>
<path d="M234.499 740.937V719.031C234.499 718.063 234.221 717.134 233.727 716.449C233.232 715.765 232.562 715.38 231.863 715.38H171.898C171.198 715.38 170.528 715.765 170.034 716.449C169.539 717.134 169.262 718.063 169.262 719.031V740.937H234.499Z" fill="#CCCCCC"/>
<path d="M234.499 749.152H169.262V777.447H234.499V749.152Z" fill="#CCCCCC"/>
<path d="M169.262 785.662V807.568C169.262 808.536 169.539 809.464 170.034 810.149C170.528 810.834 171.199 811.219 171.898 811.219H231.863C232.562 811.219 233.232 810.834 233.727 810.149C234.221 809.464 234.499 808.536 234.499 807.568V785.662H169.262Z" fill="#CCCCCC"/>
<path d="M201.551 731.81C202.643 731.81 203.528 730.584 203.528 729.071C203.528 727.559 202.643 726.333 201.551 726.333C200.459 726.333 199.574 727.559 199.574 729.071C199.574 730.584 200.459 731.81 201.551 731.81Z" fill="white"/>
<path d="M201.551 768.32C202.643 768.32 203.528 767.094 203.528 765.581C203.528 764.069 202.643 762.843 201.551 762.843C200.459 762.843 199.574 764.069 199.574 765.581C199.574 767.094 200.459 768.32 201.551 768.32Z" fill="white"/>
<path d="M201.657 804.056C202.748 804.056 203.633 802.83 203.633 801.318C203.633 799.806 202.748 798.58 201.657 798.58C200.565 798.58 199.68 799.806 199.68 801.318C199.68 802.83 200.565 804.056 201.657 804.056Z" fill="white"/>
<path d="M227.103 690.403V715.527H181.659C179.255 715.641 176.917 714.427 175.158 712.154C173.4 709.88 172.365 706.732 172.281 703.402C172.197 700.072 173.071 696.832 174.712 694.395C176.352 691.957 178.624 690.521 181.028 690.403C181.238 690.393 181.449 690.393 181.659 690.403H227.103Z" fill="#F2F2F2"/>
<path d="M228.219 715.334C228.219 715.59 228.145 715.836 228.014 716.017C227.884 716.198 227.706 716.3 227.521 716.3H180.85C178.316 716.301 175.885 714.908 174.092 712.427C172.3 709.946 171.292 706.58 171.29 703.07C171.289 699.559 172.294 696.192 174.084 693.708C175.875 691.224 178.304 689.827 180.838 689.823H227.521C227.613 689.823 227.704 689.848 227.789 689.896C227.874 689.944 227.951 690.016 228.016 690.105C228.081 690.195 228.132 690.302 228.167 690.419C228.203 690.537 228.221 690.662 228.221 690.79C228.221 690.917 228.203 691.043 228.167 691.16C228.132 691.277 228.081 691.384 228.016 691.474C227.951 691.563 227.874 691.635 227.789 691.683C227.704 691.731 227.613 691.756 227.521 691.756H180.85C178.687 691.76 176.614 692.953 175.085 695.072C173.557 697.192 172.698 700.066 172.698 703.062C172.698 706.058 173.557 708.931 175.085 711.051C176.614 713.171 178.687 714.364 180.85 714.367H227.521C227.706 714.368 227.884 714.469 228.014 714.651C228.145 714.832 228.219 715.078 228.219 715.334Z" fill="#3F3D56"/>
<path d="M227.103 696.201H178.269C178.232 696.201 178.197 696.181 178.17 696.145C178.144 696.109 178.129 696.06 178.129 696.009C178.129 695.958 178.143 695.909 178.169 695.872C178.194 695.836 178.23 695.815 178.267 695.814H227.103C227.14 695.815 227.175 695.835 227.201 695.872C227.227 695.908 227.241 695.957 227.241 696.008C227.241 696.059 227.227 696.107 227.201 696.144C227.175 696.18 227.14 696.2 227.103 696.201H227.103Z" fill="#CCCCCC"/>
<path d="M227.103 700.839H178.269C178.232 700.839 178.197 700.819 178.17 700.784C178.144 700.748 178.129 700.699 178.129 700.648C178.129 700.597 178.143 700.547 178.169 700.511C178.194 700.474 178.23 700.453 178.267 700.453H227.103C227.14 700.453 227.175 700.474 227.201 700.51C227.227 700.546 227.241 700.595 227.241 700.646C227.241 700.697 227.227 700.746 227.201 700.782C227.175 700.818 227.14 700.839 227.103 700.839H227.103Z" fill="#CCCCCC"/>
<path d="M227.103 705.477H178.269C178.232 705.478 178.197 705.458 178.17 705.422C178.144 705.386 178.129 705.337 178.129 705.286C178.129 705.235 178.143 705.186 178.169 705.149C178.194 705.113 178.23 705.092 178.267 705.091H227.103C227.14 705.091 227.175 705.112 227.201 705.148C227.227 705.184 227.241 705.233 227.241 705.284C227.241 705.335 227.227 705.384 227.201 705.42C227.175 705.456 227.14 705.477 227.103 705.477H227.103Z" fill="#CCCCCC"/>
<path d="M227.103 710.116H178.269C178.232 710.116 178.197 710.096 178.17 710.06C178.144 710.024 178.129 709.975 178.129 709.924C178.129 709.873 178.143 709.824 178.169 709.787C178.194 709.751 178.23 709.73 178.267 709.729H227.103C227.14 709.73 227.175 709.75 227.201 709.786C227.227 709.823 227.241 709.871 227.241 709.922C227.241 709.973 227.227 710.022 227.201 710.058C227.175 710.095 227.14 710.115 227.103 710.116H227.103Z" fill="#CCCCCC"/>
<path d="M173.732 590.747H153.027C152.831 590.747 152.637 590.809 152.461 590.93L147.235 594.553C147.063 594.654 146.916 594.823 146.813 595.039C146.71 595.255 146.655 595.508 146.655 595.767C146.655 596.026 146.71 596.279 146.813 596.495C146.916 596.711 147.063 596.88 147.235 596.981L152.461 600.605C152.637 600.725 152.831 600.787 153.027 600.787H173.732C174.017 600.81 174.297 600.676 174.512 600.415C174.727 600.154 174.858 599.786 174.878 599.391V592.143C174.858 591.749 174.727 591.381 174.512 591.119C174.297 590.858 174.017 590.724 173.732 590.747Z" fill="#3F3D56"/>
<path d="M174.879 592.144V599.391C174.859 599.786 174.727 600.154 174.513 600.415C174.298 600.676 174.018 600.81 173.732 600.787H169.607V590.747H173.732C174.018 590.724 174.298 590.858 174.513 591.119C174.727 591.381 174.859 591.749 174.879 592.144Z" fill="#1A1087"/>
<path d="M49.6022 732.753C52.2682 734.051 55.1307 734.376 57.9137 733.697C60.6968 733.018 63.3067 731.357 65.492 728.875C71.0574 722.405 72.8024 711.746 74.2222 701.875C75.622 692.144 77.0218 682.412 78.4216 672.681L69.6296 681.066C63.3069 687.096 56.8418 693.32 52.464 702.054C48.0862 710.789 46.1752 722.712 49.6927 732.163" fill="#E6E6E6"/>
<path d="M50.3539 768.099C49.4641 759.12 48.549 750.027 49.1732 740.952C49.7276 732.893 51.5026 725.022 55.1165 718.568C57.0347 715.149 59.3688 712.219 62.0138 709.911C62.7035 709.307 63.3384 710.822 62.6516 711.422C58.075 715.428 54.5351 721.345 52.5423 728.317C50.3414 736.071 49.9879 744.524 50.3672 752.761C50.5966 757.742 51.0827 762.691 51.5725 767.633C51.6112 767.857 51.5871 768.092 51.5051 768.292C51.4232 768.492 51.2896 768.641 51.1312 768.71C50.9697 768.77 50.7974 768.74 50.6519 768.625C50.5064 768.511 50.3993 768.322 50.3539 768.099L50.3539 768.099Z" fill="#F2F2F2"/>
<path d="M58.9248 752.211C60.0682 754.619 61.6399 756.577 63.4884 757.899C65.3369 759.22 67.4 759.86 69.4789 759.757C74.8216 759.405 79.2757 754.24 83.2852 749.337L95.1445 734.833L87.2956 734.313C81.6511 733.939 75.861 733.59 70.4849 736.001C65.1087 738.412 60.1505 744.214 59.1674 751.922" fill="#E6E6E6"/>
<path d="M47.839 773.26C52.1221 762.762 57.0901 751.096 65.9671 747.367C68.4353 746.334 71.0234 745.963 73.592 746.276C74.4016 746.373 74.1994 748.102 73.3913 748.005C69.0858 747.51 64.7886 749.085 61.2231 752.464C57.7922 755.699 55.1208 760.196 52.8597 764.965C51.4748 767.887 50.2342 770.932 48.9934 773.973C48.5969 774.945 47.4379 774.243 47.839 773.26L47.839 773.26Z" fill="#F2F2F2"/>
<path d="M40.976 784.309C41.1203 781.993 41.7207 779.776 42.7117 777.9C43.7028 776.024 45.0465 774.56 46.5965 773.668V767.6H53.945V773.86C55.4188 774.795 56.6871 776.255 57.6207 778.091C58.5543 779.926 59.1198 782.072 59.2595 784.309L60.9875 812.131H39.248L40.976 784.309Z" fill="#F2F2F2"/>
<path d="M290.886 651.464L288.7 650.189L287.201 635.009H267.231L265.605 650.127L263.649 651.481C263.556 651.546 263.481 651.653 263.436 651.784C263.392 651.915 263.381 652.063 263.405 652.204C263.429 652.345 263.487 652.471 263.569 652.561C263.651 652.651 263.752 652.7 263.857 652.7H290.706C290.814 652.7 290.917 652.648 291 652.554C291.083 652.46 291.14 652.329 291.162 652.184C291.183 652.038 291.167 651.887 291.117 651.756C291.067 651.624 290.985 651.521 290.886 651.464Z" fill="#E6E6E6"/>
<path d="M326.375 637.029H228.275C227.76 637.027 227.267 636.743 226.904 636.238C226.54 635.734 226.336 635.05 226.336 634.337V615.176H328.314V634.337C328.314 635.05 328.11 635.734 327.746 636.238C327.382 636.743 326.889 637.027 326.375 637.029Z" fill="#CCCCCC"/>
<path d="M328.416 624.232H226.246V542.246C226.247 541.386 226.494 540.561 226.933 539.952C227.372 539.344 227.968 539.002 228.589 539.001H326.073C326.694 539.002 327.29 539.344 327.729 539.952C328.168 540.561 328.415 541.386 328.416 542.246L328.416 624.232Z" fill="#3F3D56"/>
<path d="M322.314 618.281H232.348C231.869 618.281 231.41 618.017 231.072 617.548C230.733 617.079 230.543 616.443 230.542 615.779V547.453C230.543 546.79 230.733 546.154 231.072 545.685C231.41 545.216 231.869 544.952 232.348 544.951H322.314C322.793 544.952 323.252 545.216 323.59 545.685C323.929 546.154 324.119 546.79 324.12 547.453V615.779C324.119 616.443 323.929 617.079 323.59 617.548C323.252 618.017 322.793 618.281 322.314 618.281Z" fill="white"/>
<path d="M298.619 642.39C299.2 641.647 299.891 641.089 300.644 640.756C301.398 640.423 302.195 640.323 302.979 640.463C303.763 640.603 304.516 640.979 305.184 641.565C305.851 642.151 306.419 642.933 306.845 643.856L319.014 640.859L322.132 650.658L304.904 654.556C303.738 655.444 302.377 655.71 301.078 655.301C299.78 654.893 298.635 653.839 297.86 652.34C297.086 650.84 296.735 648.999 296.875 647.165C297.015 645.332 297.635 643.633 298.619 642.39Z" fill="#FFB6B6"/>
<path d="M309.885 654.902L322.571 654.683L324.177 654.653L349.988 654.202C349.988 654.202 356.997 644.94 363.1 635.404L362.245 626.834C361.41 618.423 358.398 610.718 353.769 605.154C345.027 613.244 339.958 629.258 339.958 629.258L323.954 634.56L322.353 635.091L312.409 638.382L309.885 654.902Z" fill="#1A1087"/>
<path d="M374.828 707.579H351.147C351.147 708.984 325.261 710.125 325.261 710.125C324.69 710.721 324.17 711.404 323.71 712.162C322.328 714.445 321.573 717.33 321.577 720.309V722.346C321.578 725.722 322.547 728.96 324.27 731.347C325.993 733.734 328.331 735.075 330.768 735.077H374.828C377.265 735.074 379.601 733.732 381.324 731.345C383.047 728.958 384.016 725.722 384.019 722.346V720.309C384.015 716.934 383.046 713.699 381.323 711.313C379.6 708.926 377.264 707.584 374.828 707.579Z" fill="#E4E4E4"/>
<path d="M357.607 734.571H348.049V810.991H357.607V734.571Z" fill="#E4E4E4"/>
<path d="M320.844 810.526C320.844 811.957 335.328 811.08 353.195 811.08C371.063 811.08 385.547 811.957 385.547 810.526C385.547 809.096 371.063 797.752 353.195 797.752C335.328 797.752 320.844 809.096 320.844 810.526Z" fill="#E4E4E4"/>
<path d="M314.423 801.794L307.309 801.794L303.925 763.787L314.424 763.788L314.423 801.794Z" fill="#FFB6B6"/>
<path d="M316.238 811.346L293.3 811.344V810.943C293.3 807.663 294.241 804.518 295.915 802.198C297.589 799.879 299.86 798.576 302.228 798.576H302.228L316.238 798.577L316.238 811.346Z" fill="#2F2E41"/>
<path d="M293.397 801.794L286.284 801.794L282.899 763.787L293.398 763.788L293.397 801.794Z" fill="#FFB6B6"/>
<path d="M295.212 811.346L272.274 811.344V810.943C272.275 807.663 273.215 804.518 274.89 802.198C276.564 799.879 278.835 798.576 281.202 798.576H281.203L295.213 798.577L295.212 811.346Z" fill="#2F2E41"/>
<path d="M357.122 582.987C363.953 582.987 369.491 575.316 369.491 565.854C369.491 556.392 363.953 548.722 357.122 548.722C350.291 548.722 344.753 556.392 344.753 565.854C344.753 575.316 350.291 582.987 357.122 582.987Z" fill="#FFB6B6"/>
<path d="M377.14 683.24C377.14 683.24 381.29 713.637 365.5 717.508C349.709 721.379 326.915 724.099 326.915 724.099L316.679 790.25L302.927 788.549C302.927 788.549 304.756 708.919 309.253 702.689C313.751 696.459 342.179 677.805 342.179 677.805L377.14 683.24Z" fill="#2F2E41"/>
<path d="M346.3 670.5L339.394 680.097C339.394 680.097 289.528 691.222 287.604 707.175C284.7 731.261 281.27 783.636 281.27 783.636L296.262 782.078L302.141 722.542L326.13 714.984L353.421 694.382L346.3 670.5Z" fill="#2F2E41"/>
<path d="M369.024 555.627C367.803 552.437 366.251 546.077 363.787 544.898C362.418 544.269 361.004 543.852 359.569 543.653L355.38 545.885L357.66 543.429C357.216 543.392 356.772 543.362 356.329 543.339L353.503 544.844L354.949 543.287C352.314 543.249 349.594 543.629 347.552 545.851C345.812 547.745 344.087 554.92 343.808 557.961C343.51 560.871 343.615 563.832 344.116 566.688L344.832 567.63C345.082 566.835 345.27 566.005 345.393 565.155C345.65 563.565 346.143 562.067 346.84 560.756C347.538 559.445 348.425 558.35 349.445 557.54L349.484 557.51C350.685 556.574 352.141 556.617 353.518 556.685L360.056 557.011C361.629 557.09 363.323 557.228 364.549 558.594C365.329 559.603 365.942 560.832 366.346 562.199C366.955 563.903 368.146 570.328 368.146 570.328C368.146 570.328 368.82 569.115 369.143 570.018C369.661 567.663 369.975 565.231 370.081 562.773C370.184 560.304 369.819 557.841 369.024 555.627Z" fill="#2F2E41"/>
<path d="M412.285 573.378C411.496 573.45 410.728 573.761 410.035 574.288C409.342 574.816 408.741 575.547 408.274 576.432C407.808 577.316 407.487 578.331 407.334 579.405C407.181 580.48 407.2 581.588 407.39 582.651L397.443 592.814L400.428 602.692L414.329 588.067C415.597 587.508 416.673 586.323 417.353 584.737C418.033 583.152 418.269 581.276 418.017 579.466C417.765 577.655 417.043 576.035 415.986 574.913C414.93 573.791 413.613 573.245 412.285 573.378Z" fill="#FFB6B6"/>
<path d="M410.684 594.125L385.749 632.483C385.749 632.483 373.825 627.196 364.603 621.464L360.46 603.838C359.498 599.75 359.088 595.45 359.249 591.156C372.033 586.444 386.903 603.977 386.903 603.977L405.568 583.726L410.684 594.125Z" fill="#1A1087"/>
<path d="M352.502 686.073C348.053 683.944 343.453 681.744 338.491 680.917L338.278 680.882L338.337 680.596C343.473 655.616 342.191 639.637 339.674 615.634C339.139 610.457 339.827 605.178 341.635 600.587C343.443 595.995 346.275 592.337 349.708 590.158L349.738 590.139L363.909 588.891L363.942 588.889L374.248 593.087C375.731 593.696 377.028 594.961 377.942 596.688C378.856 598.416 379.336 600.511 379.308 602.653C379.196 610.546 379.433 619.36 379.684 628.69C380.246 649.623 380.828 671.268 377.528 685.312L377.51 685.385L377.466 685.433C374.433 688.856 370.632 690.705 366.719 690.662C362.093 690.662 357.373 688.403 352.502 686.073Z" fill="#1A1087"/>
<path d="M455.38 813.001H0.698023C0.523256 813.001 0.355649 812.905 0.23207 812.734C0.108492 812.562 0.0390625 812.33 0.0390625 812.088C0.0390625 811.846 0.108492 811.614 0.23207 811.443C0.355649 811.272 0.523256 811.175 0.698023 811.175H455.38C455.555 811.175 455.722 811.272 455.846 811.443C455.97 811.614 456.039 811.846 456.039 812.088C456.039 812.33 455.97 812.562 455.846 812.734C455.722 812.905 455.555 813.001 455.38 813.001Z" fill="#CCCCCC"/>
</g>
<defs>
<filter id="filter0_d_2_11" x="1.04004" y="1.07104" width="277.289" height="814.057" filterUnits="userSpaceOnUse" color-interpolation-filters="sRGB">
<feFlood flood-opacity="0" result="BackgroundImageFix"/>
<feColorMatrix in="SourceAlpha" type="matrix" values="0 0 0 0 0 0 0 0 0 0 0 0 0 0 0 0 0 0 127 0" result="hardAlpha"/>
<feOffset/>
<feComposite in2="hardAlpha" operator="out"/>
<feColorMatrix type="matrix" values="0 0 0 0 0.662745 0 0 0 0 0.968627 0 0 0 0 0.960784 0 0 0 1 0"/>
<feBlend mode="normal" in2="BackgroundImageFix" result="effect1_dropShadow_2_11"/>
<feBlend mode="normal" in="SourceGraphic" in2="effect1_dropShadow_2_11" result="shape"/>
</filter>
<linearGradient id="paint0_linear_2_11" x1="217.5" y1="-64.5" x2="170.812" y2="842.865" gradientUnits="userSpaceOnUse">
<stop stop-color="#3803C1"/>
<stop offset="1" stop-color="#7D95F1"/>
</linearGradient>
<linearGradient id="paint1_linear_2_11" x1="127" y1="1" x2="2.29036" y2="816.867" gradientUnits="userSpaceOnUse">
<stop stop-color="white" stop-opacity="0"/>
<stop offset="1" stop-color="white" stop-opacity="0.9"/>
</linearGradient>
<clipPath id="clip0_2_11">
<path d="M0.0390625 539.001H456.039V813.001H50.0391C22.4248 813.001 0.0390625 790.615 0.0390625 763.001V539.001Z" fill="white"/>
</clipPath>
</defs>
</svg>
