<svg width="22" height="22" viewBox="0 0 22 22" fill="none" xmlns="http://www.w3.org/2000/svg">
<path d="M18.5974 1.16396L2.22083 8.09249C0.498939 8.82099 0.629137 11.3034 2.41779 11.8478L7.62035 13.4312C7.93919 13.5282 8.22338 13.7015 8.45213 13.9302C8.68095 14.159 8.8543 14.4432 8.95137 14.7622L10.5348 19.9648C11.0791 21.7534 13.5616 21.8836 14.29 20.1617L21.2186 3.78518C21.9185 2.13076 20.2518 0.464015 18.5974 1.16396Z" fill="#3803C1"/>
<path d="M14.1406 8.2417L8.45213 13.9302M8.45213 13.9302C8.68095 14.159 8.8543 14.4432 8.95137 14.7622L10.5348 19.9648C11.0791 21.7534 13.5616 21.8836 14.29 20.1617L21.2186 3.78518C21.9185 2.13076 20.2518 0.464015 18.5974 1.16396L2.22083 8.09249C0.498939 8.82099 0.629137 11.3034 2.41779 11.8478L7.62035 13.4312C7.93919 13.5282 8.22338 13.7015 8.45213 13.9302Z" stroke="white" stroke-linecap="round"/>
</svg>
